<svg width="747" height="333" viewBox="0 0 747 333" fill="none" xmlns="http://www.w3.org/2000/svg">
<path d="M267.71 55.28H374.68V85.68H267.71V55.28ZM302.1 93.28H340.1V186H302.1V93.28Z" fill="#EE6161"/>
<path d="M447.855 55.28H451.085L466.095 107.34L444.245 186H406.245L447.855 55.28ZM490.605 162.82H458.875L466.855 133.56H482.055L459.635 55.28H494.405L536.015 186H497.255L490.605 162.82Z" fill="#EE6161"/>
<path d="M586.655 60.6V55.28H624.655L697.995 180.49V186H660.185L586.655 60.6ZM661.895 102.97V55.28H697.995V164.72L661.895 102.97ZM586.655 76.37L622.755 138.12V186H586.655V76.37Z" fill="#EE6161"/>
<path d="M293.864 272.717L292.703 270.137L289.349 263.558L286.124 256.721C285.78 256.119 285.35 255.216 284.834 254.012L279.545 243.047L265.355 213.248H291.671L319.664 272.846V302H293.864V272.717ZM310.505 240.725L322.502 213.248H348.302L338.24 234.146L333.983 242.918L322.631 266.525L310.505 240.725Z" fill="#01D0FB"/>
<path d="M381.6 261.236C381.6 259 381.514 257.409 381.342 256.463C381.17 255.517 380.654 254.829 379.794 254.399C379.02 253.969 377.558 253.668 375.408 253.496C374.118 253.41 371.323 253.367 367.023 253.367C362.895 253.367 359.068 253.539 355.542 253.883L348.705 254.27V237.5C356.789 235.952 365.518 235.178 374.892 235.178C382.116 235.178 387.749 235.694 391.791 236.726C395.919 237.758 399.015 239.392 401.079 241.628C402.885 243.692 404.046 246.315 404.562 249.497C405.164 252.679 405.465 257.108 405.465 262.784V302H381.6V261.236ZM362.508 302.903C356.574 302.903 352.188 301.269 349.35 298.001C346.512 294.647 345.093 289.616 345.093 282.908C345.093 278.78 345.394 275.469 345.996 272.975C346.598 270.395 347.63 268.374 349.092 266.912C350.554 265.364 352.575 264.289 355.155 263.687C357.735 262.999 361.132 262.655 365.346 262.655L376.182 262.913V274.394H374.892C372.914 274.394 371.624 274.437 371.022 274.523C369.302 274.609 368.399 275.426 368.313 276.974C368.227 277.49 368.184 278.565 368.184 280.199C368.184 281.489 368.227 282.478 368.313 283.166C368.485 283.854 368.743 284.413 369.087 284.843C369.517 285.445 370.162 285.789 371.022 285.875C372.226 286.047 373.516 286.133 374.892 286.133H376.182V299.291C374.29 300.753 372.269 301.699 370.119 302.129C368.055 302.645 365.518 302.903 362.508 302.903Z" fill="#01D0FB"/>
<path d="M418.316 284.843L445.664 254.399H419.864V236.21H475.334V253.367L431.732 302H418.316V284.843ZM455.21 283.811H475.592V302H438.956L455.21 283.811Z" fill="#01D0FB"/>
<path d="M488.773 236.21H512.638V302H488.773V236.21Z" fill="#01D0FB"/>
<path d="M527.322 206.153H551.187V302H527.322V206.153Z" fill="#01D0FB"/>
<path d="M565.871 236.21H589.736V302H565.871V236.21Z" fill="#01D0FB"/>
<path d="M640.41 261.881C640.41 259.817 640.195 258.226 639.765 257.108C639.421 256.248 638.862 255.732 638.088 255.56C637.4 255.302 636.153 255.173 634.347 255.173H633.702V239.048C637.056 236.554 641.7 235.307 647.634 235.307C650.3 235.307 652.622 235.651 654.6 236.339C656.578 236.941 658.255 238.059 659.631 239.693C662.727 243.477 664.275 250.529 664.275 260.849V302H640.41V261.881ZM676.401 261.881C676.401 259.817 676.186 258.226 675.756 257.108C675.412 256.248 674.853 255.732 674.079 255.56C673.391 255.302 672.144 255.173 670.338 255.173H669.693C669.521 252.937 669.263 250.615 668.919 248.207C668.231 244.767 667.5 242.273 666.726 240.725C670.338 237.113 675.498 235.307 682.206 235.307C689.516 235.307 694.504 237.672 697.17 242.402C698.374 244.466 699.191 247.003 699.621 250.013C700.051 252.937 700.266 256.549 700.266 260.849V302H676.401V261.881ZM604.419 236.21H628.284V302H604.419V236.21Z" fill="#01D0FB"/>
<mask id="mask0" mask-type="alpha" maskUnits="userSpaceOnUse" x="0" y="38" width="249" height="249">
<circle cx="124.5" cy="162.5" r="124.5" fill="#C4C4C4"/>
</mask>
<g mask="url(#mask0)">
<g clip-path="url(#clip0)">
<path d="M196.403 163.321L224.436 165.328L282.083 116.591L234.582 53.2451L174.239 106.809L166.168 126.302L196.403 163.321Z" fill="#01D0FB"/>
<path d="M168.815 188.496L190.744 193.809L224.436 165.328L174.239 106.809L140.117 137.1L137.16 153.011L168.815 188.496Z" fill="#62DBFB"/>
<path d="M128.568 221.968L155.927 223.246L190.744 193.809L140.117 137.1L105.861 167.51L96.3036 186.411L128.568 221.968Z" fill="#99E6FC"/>
<path d="M86.2378 214.024C78.2581 205.079 79.0457 191.354 87.9905 183.368L105.861 167.51L155.927 223.246L120.172 253.472L104.946 234.995L86.2378 214.024Z" fill="#C8EFFE"/>
<path d="M218.953 193.953L247.855 184.244L304.647 94.1305L226.639 61.5787L174.773 135.488L171.715 163.153L218.953 193.953Z" fill="#05E39C"/>
<path d="M187.772 232.41L220.777 227.212L247.855 184.244L174.773 135.488L147.182 174.81L143.596 201.704L187.772 232.41Z" fill="#00F2A6"/>
<path d="M120.094 236.367L170.989 269.542L195.695 267.017L220.777 227.212L147.182 174.81L118.727 215.364L120.094 236.367Z" fill="#6CF5C2"/>
<path d="M109.277 266.619C99.4648 259.732 97.0923 246.195 103.98 236.376L118.727 215.364L195.695 267.017L170.401 307.15L135.148 284.774L109.277 266.619Z" fill="#9CF8D2"/>
<path d="M272.994 209.574L313.781 110.493C324.31 84.9172 312.114 55.6551 286.539 45.1269C260.969 34.6012 231.701 46.7946 221.173 72.3695L180.842 170.342L272.994 209.574Z" fill="#FED402"/>
<path d="M166.602 218.345L234.632 250.742L255.005 244.731L275.333 196.667L184.801 160.725L165.614 207.4L166.602 218.345Z" fill="#FEE45A"/>
<path d="M148.115 272.634L220.603 296.419L235.736 289.672L254.77 244.656L165.583 207.41L146.236 254.409L148.115 272.634Z" fill="#FEE97D"/>
<path d="M147.593 308.713C136.484 304.192 131.144 291.526 135.659 280.417L146.234 254.411L235.735 289.673L219.213 328.741C213.603 331.988 206.61 332.712 200.137 330.077L147.593 308.713Z" fill="#FEF0AE"/>
<path d="M317.299 136.527L316.953 187.12L316.608 237.708L316.263 288.301L316.073 316.084C315.992 328.078 306.204 337.727 294.215 337.646L237.496 337.259C225.501 337.177 215.846 327.395 215.927 315.4L217.461 90.61C217.65 62.9532 240.225 40.69 267.876 40.8787C295.533 41.0674 317.796 63.6365 317.607 91.2934L317.299 136.527Z" fill="#F9F7F8"/>
<path d="M215.927 315.4L216.117 287.618L267.507 283.182L316.263 288.301L316.073 316.083C315.992 328.078 306.204 337.727 294.215 337.646L237.496 337.259C225.501 337.177 215.846 327.395 215.927 315.4Z" fill="#F9B1B1"/>
<path d="M216.117 287.618L216.462 237.024L267.203 231.388L316.608 237.708L316.263 288.301L216.117 287.618Z" fill="#F79595"/>
<path d="M216.807 186.437L217.153 135.843L317.299 136.527L316.953 187.12L268.124 192.77L216.807 186.437Z" fill="#EE6161"/>
<path d="M316.608 237.708L216.462 237.024L216.807 186.437L316.953 187.12L316.608 237.708Z" fill="#F47C7C"/>
</g>
<g clip-path="url(#clip1)">
<path d="M164.97 101.603L185.395 120.907L260.874 119.692L264.223 40.5854L183.602 43.8303L165.012 53.8052L164.97 101.603Z" fill="#01D0FB"/>
<path d="M127.676 103.617L141.284 121.616L185.395 120.907L183.602 43.8303L138.011 45.6661L125.648 56.1081L127.676 103.617Z" fill="#62DBFB"/>
<path d="M75.3311 104.036L95.697 122.351L141.284 121.616L138.011 45.6662L92.2425 47.51L72.8762 56.0863L75.3311 104.036Z" fill="#99E6FC"/>
<path d="M47.6005 71.0826C47.0888 59.1067 56.3897 48.983 68.3694 48.4666L92.2426 47.51L95.697 122.351L48.8835 123.102L48.8 99.1605L47.6005 71.0826Z" fill="#C8EFFE"/>
<path d="M163.025 139.59L191.542 150.377L292.561 116.597L252.799 42.0059L165.855 66.3646L145.969 85.8389L163.025 139.59Z" fill="#05E39C"/>
<path d="M114.541 149.609L143.376 166.486L191.542 150.377L165.855 66.3647L119.6 79.3257L99.794 97.8694L114.541 149.609Z" fill="#00F2A6"/>
<path d="M59.6551 109.814L78.0369 167.72L98.7571 181.41L143.376 166.486L119.6 79.3257L71.8966 92.6935L59.6551 109.814Z" fill="#6CF5C2"/>
<path d="M32.1262 126.379C28.8931 114.835 35.6292 102.855 47.1771 99.6175L71.8967 92.6935L98.7571 181.41L53.7672 196.454L40.6528 156.812L32.1262 126.379Z" fill="#9CF8D2"/>
<path d="M194.958 185.901L289.269 135.045C313.613 121.918 322.703 91.5474 309.577 67.2039C296.452 42.8658 266.079 33.7691 241.735 46.8959L148.481 97.1826L194.958 185.901Z" fill="#FED402"/>
<path d="M107.062 125.317L139.199 193.471L158.772 201.72L204.942 177.393L157.634 92.2466L113.229 116.221L107.062 125.317Z" fill="#FEE45A"/>
<path d="M58.376 155.627L99.4161 219.938L115.401 224.3L158.638 201.513L113.198 116.208L68.4624 140.333L58.376 155.627Z" fill="#FEE97D"/>
<path d="M35.125 183.221C29.39 172.687 33.2778 159.503 43.8069 153.764L68.4603 140.333L115.399 224.3L77.8727 244.074C71.4752 243.034 65.6046 239.167 62.263 233.028L35.125 183.221Z" fill="#FEF0AE"/>
<path d="M275.505 157.421L243.2 196.36L210.899 235.294L178.593 274.232L160.854 295.614C153.195 304.846 139.509 306.116 130.282 298.461L86.629 262.244C77.3974 254.585 76.1191 240.9 83.778 231.668L227.312 58.6628C244.972 37.3772 276.542 34.4422 297.823 52.0979C319.108 69.7575 322.047 101.323 304.388 122.609L275.505 157.421Z" fill="#F9F7F8"/>
<path d="M83.778 231.668L101.518 210.286L144.1 239.396L178.593 274.232L160.854 295.614C153.195 304.846 139.509 306.116 130.282 298.461L86.629 262.244C77.3974 254.585 76.1191 240.9 83.778 231.668Z" fill="#F9B1B1"/>
<path d="M101.518 210.286L133.823 171.348L176.663 199.117L210.899 235.294L178.593 274.232L101.518 210.286Z" fill="#F79595"/>
<path d="M166.124 132.414L198.43 93.4757L275.505 157.421L243.2 196.36L201.831 169.811L166.124 132.414Z" fill="#EE6161"/>
<path d="M210.899 235.294L133.823 171.348L166.124 132.414L243.2 196.36L210.899 235.294Z" fill="#F47C7C"/>
</g>
</g>
<defs>
<clipPath id="clip0">
<rect x="346.149" y="338" width="296.58" height="296.58" transform="rotate(-179.609 346.149 338)" fill="white"/>
</clipPath>
<clipPath id="clip1">
<rect x="170.252" y="331.622" width="296.58" height="296.58" transform="rotate(-140.319 170.252 331.622)" fill="white"/>
</clipPath>
</defs>
</svg>
